<?xml version="1.0" standalone="no"?>
<!DOCTYPE svg PUBLIC "-//W3C//DTD SVG 1.1//EN" "http://www.w3.org/Graphics/SVG/1.1/DTD/svg11.dtd">

<svg width="600" height="118" version="1.1" xmlns="http://www.w3.org/2000/svg">
	<ellipse stroke="black" stroke-width="1" fill="none" cx="148.5" cy="86.5" rx="30" ry="30"/>
	<text x="142.5" y="92.5" font-family="Times New Roman" font-size="20">S</text>
	<ellipse stroke="black" stroke-width="1" fill="none" cx="388.5" cy="86.5" rx="30" ry="30"/>
	<text x="381.5" y="92.5" font-family="Times New Roman" font-size="20">A</text>
	<ellipse stroke="black" stroke-width="1" fill="none" cx="568.5" cy="86.5" rx="30" ry="30"/>
	<text x="562.5" y="92.5" font-family="Times New Roman" font-size="20">E</text>
	<ellipse stroke="black" stroke-width="1" fill="none" cx="568.5" cy="86.5" rx="24" ry="24"/>
	<polygon stroke="black" stroke-width="1" points="178.5,86.5 358.5,86.5"/>
	<polygon fill="black" stroke-width="1" points="358.5,86.5 350.5,81.5 350.5,91.5"/>
	<text x="263.5" y="107.5" font-family="Times New Roman" font-size="20">b</text>
	<path stroke="black" stroke-width="1" fill="none" d="M 135.275,59.703 A 22.5,22.5 0 1 1 161.725,59.703"/>
	<text x="144.5" y="10.5" font-family="Times New Roman" font-size="20">a</text>
	<polygon fill="black" stroke-width="1" points="161.725,59.703 170.473,56.17 162.382,50.292"/>
	<polygon stroke="black" stroke-width="1" points="2.5,86.5 118.5,86.5"/>
	<polygon fill="black" stroke-width="1" points="118.5,86.5 110.5,81.5 110.5,91.5"/>
	<polygon stroke="black" stroke-width="1" points="418.5,86.5 538.5,86.5"/>
	<polygon fill="black" stroke-width="1" points="538.5,86.5 530.5,81.5 530.5,91.5"/>
	<text x="474.5" y="107.5" font-family="Times New Roman" font-size="20">&#949;</text>
	<path stroke="black" stroke-width="1" fill="none" d="M 375.275,59.703 A 22.5,22.5 0 1 1 401.725,59.703"/>
	<text x="384.5" y="10.5" font-family="Times New Roman" font-size="20">c</text>
	<polygon fill="black" stroke-width="1" points="401.725,59.703 410.473,56.17 402.382,50.292"/>
</svg>
